<svg fill="none" xmlns="http://www.w3.org/2000/svg" viewBox="0 0 21 24">
  <path fill="#0D666E" d="M0 0h20.777v23.827H0z"/>
  <path opacity=".578" d="M7.404 4.55a2.005 2.005 0 10-4.01 0 2.005 2.005 0 004.01 0zm-3.035 0a1.03 1.03 0 112.059 0 1.03 1.03 0 01-2.059 0z" fill="#fff"/>
  <path d="M3.455 8.407a.488.488 0 00.013.496l4.806 7.66v2.443a.488.488 0 00.254.424l3.254 1.79a.487.487 0 00.724-.424v-4.233l4.802-7.658a.487.487 0 00-.413-.747h-2.586a2.005 2.005 0 00-3.928 0h-6.5a.488.488 0 00-.424.254l-.002-.005zm8.89-.876a1.03 1.03 0 01.947.624H11.4a1.03 1.03 0 01.946-.624zm3.67 1.6l-4.413 7.034a.489.489 0 00-.074.26v3.547L9.25 18.72v-2.29a.488.488 0 00-.075-.26L4.764 9.136l11.25-.004z" fill="#fff"/>
</svg>
