<svg fill="none" xmlns="http://www.w3.org/2000/svg" viewBox="0 0 123 50">
  <path fill-rule="evenodd" clip-rule="evenodd" d="M0 1.716C0 .768.768 0 1.717 0h34.172c.948 0 1.717.768 1.717 1.716V35.89c0 .948-.769 1.717-1.717 1.717H1.717A1.716 1.716 0 010 35.889V1.716zm42.554 0C42.554.768 43.322 0 44.27 0h34.173c.948 0 1.716.768 1.716 1.716V35.89c0 .948-.768 1.717-1.716 1.717H44.27a1.717 1.717 0 01-1.716-1.717V1.716zM86.824 0c-.949 0-1.716.768-1.716 1.716V35.89c0 .948.767 1.717 1.716 1.717h34.173c.948 0 1.716-.769 1.716-1.717V1.716c0-.948-.768-1.716-1.716-1.716H86.824z" fill="url(#WfKmCAM33yxha)"/>
  <path d="M103.635 32.153c-1.912 0-3.691-.327-5.337-.98a13.7 13.7 0 01-4.321-2.796 13.506 13.506 0 01-2.905-4.176c-.678-1.597-1.017-3.316-1.017-5.155 0-1.84.34-3.547 1.017-5.12a12.96 12.96 0 012.905-4.176 12.908 12.908 0 014.321-2.795c1.646-.678 3.425-1.017 5.337-1.017s3.692.339 5.338 1.017a12.898 12.898 0 014.32 2.795 12.491 12.491 0 012.869 4.176c.702 1.573 1.053 3.28 1.053 5.12 0 1.84-.351 3.558-1.053 5.155a12.997 12.997 0 01-2.869 4.176 13.69 13.69 0 01-4.32 2.796c-1.646.653-3.426.98-5.338.98zm0-5.737a7.286 7.286 0 002.832-.544 7.067 7.067 0 002.251-1.562 6.934 6.934 0 001.526-2.323c.362-.92.544-1.9.544-2.941 0-1.066-.182-2.046-.544-2.941a6.933 6.933 0 00-1.526-2.324 6.608 6.608 0 00-2.251-1.525 6.89 6.89 0 00-2.832-.581 6.89 6.89 0 00-2.832.58 7.011 7.011 0 00-2.287 1.526 7.21 7.21 0 00-1.49 2.324c-.362.895-.544 1.875-.544 2.94 0 1.041.182 2.022.545 2.941.363.896.86 1.67 1.489 2.324a7.519 7.519 0 002.287 1.562 7.286 7.286 0 002.832.544zm-47.908-.581h3.92a6.93 6.93 0 002.76-.544 7.116 7.116 0 003.812-3.776 7.192 7.192 0 00.545-2.796 7.288 7.288 0 00-.544-2.832 6.917 6.917 0 00-3.813-3.85 6.557 6.557 0 00-2.76-.58h-3.92v14.378zm-6.246 5.52V5.937h10.312c1.888 0 3.643.327 5.265.98a13.178 13.178 0 014.248 2.723 12.289 12.289 0 012.868 4.067c.702 1.55 1.053 3.22 1.053 5.01 0 1.768-.35 3.414-1.053 4.939a12.397 12.397 0 01-2.868 4.03c-1.21 1.138-2.626 2.033-4.248 2.687-1.622.654-3.377.98-5.265.98H49.48zm-44.533-.001l10.42-25.416h7.154l10.275 25.416h-6.753l-2.324-6.136h-9.913l-2.36 6.136H4.948zm10.748-11.11h6.172l-3.05-8.134-3.122 8.134zM48.66 2.691c-.207-.05-.8-.605-3.112-.116-.78.165-2.95 1.162-5.701 2.43l-7.048-1.9-1.994.471 5.835 2.899a161.22 161.22 0 01-5.517 2.398l-4.29-2.28-1.054.437 3.876 3.895-.712 2.141 1.378-.344.758-1.468c2.17-.331 4.748-.918 7.697-1.913l-.646 5.488 1.567-.925 1.91-5.575c7.837-2.959 8.347-4.54 8.449-4.976.112-.48-1.187-.612-1.395-.662z" fill="#fff"/>
  <path d="M119.912 47.856v-4.64h1.22v.517c.148-.202.327-.356.534-.464a1.52 1.52 0 01.704-.16c.226.006.395.042.507.107v1.069a1.144 1.144 0 00-.293-.09 1.521 1.521 0 00-.33-.035c-.238 0-.454.06-.65.178a1.302 1.302 0 00-.472.508v3.01h-1.22zm-2.948.09a2.53 2.53 0 01-1.264-.321 2.436 2.436 0 01-.891-.864c-.22-.362-.33-.77-.33-1.22a2.4 2.4 0 01.312-1.22 2.41 2.41 0 01.864-.864 2.337 2.337 0 011.212-.321c.444 0 .84.11 1.184.33.344.22.614.516.81.89.202.374.303.799.303 1.274v.32h-3.437c.053.184.139.35.257.499a1.32 1.32 0 001.043.472c.207 0 .398-.033.57-.098a1.29 1.29 0 00.454-.276l.801.73a2.96 2.96 0 01-.881.508 2.96 2.96 0 01-1.007.16zm-1.256-2.868h2.254a1.152 1.152 0 00-.231-.482 1.106 1.106 0 00-.393-.329 1.002 1.002 0 00-.498-.125 1.1 1.1 0 00-.909.445 1.38 1.38 0 00-.223.49zm-5.561 2.778v-.864l2.334-2.752h-2.316v-1.024h3.874v.864l-2.333 2.752h2.396v1.024h-3.955zm-1.934 0v-4.64h1.22v4.64h-1.22zm.606-5.192a.67.67 0 01-.49-.205.67.67 0 01-.204-.49.65.65 0 01.204-.49.668.668 0 01.49-.204.65.65 0 01.49.205.65.65 0 01.204.49.67.67 0 01-.204.49.651.651 0 01-.49.204zm-8.669 5.193v-4.64h1.221v.355a1.752 1.752 0 011.21-.445c.303 0 .573.063.811.187.238.119.433.288.588.508.19-.225.413-.398.668-.516.261-.12.549-.179.864-.179.351 0 .656.08.917.24.268.155.475.372.623.651.155.273.232.594.232.962v2.877h-1.211v-2.699c0-.303-.08-.54-.241-.713-.16-.178-.374-.266-.641-.266-.184 0-.353.038-.507.115a1.064 1.064 0 00-.383.347l.017.16c.007.054.009.114.009.179v2.877h-1.22v-2.699c0-.303-.08-.54-.24-.713-.155-.178-.366-.266-.632-.266-.185 0-.351.035-.5.106a.978.978 0 00-.364.321v3.25h-1.221zm-2.174-.001v-4.64h1.22v4.64h-1.22zm.606-5.192a.668.668 0 01-.49-.205.668.668 0 01-.205-.49c0-.196.068-.36.205-.49a.667.667 0 01.49-.204.65.65 0 01.49.205.65.65 0 01.204.49.67.67 0 01-.204.49.65.65 0 01-.49.204zM96.4 47.928c-.516 0-.907-.116-1.175-.348-.26-.237-.392-.582-.392-1.033v-2.316h-.953v-1.015h.953v-1.184l1.22-.277v1.461h1.328v1.015h-1.327v2.066c0 .214.047.369.142.464.095.089.261.133.499.133.118 0 .225-.005.32-.018.101-.017.21-.047.33-.088v1.006a2.514 2.514 0 01-.472.098 3.792 3.792 0 01-.472.035zm-7.635 1.746v-6.457h1.202v.382c.38-.296.82-.445 1.319-.445.44 0 .837.107 1.193.32.357.214.638.502.846.865.214.356.32.757.32 1.202 0 .445-.106.849-.32 1.212-.213.355-.502.64-.864.854a2.391 2.391 0 01-1.211.312c-.231 0-.454-.03-.668-.09a2.364 2.364 0 01-.597-.275v2.12h-1.22zm2.324-2.788c.256 0 .485-.06.686-.178a1.31 1.31 0 00.49-.481c.119-.202.178-.43.178-.686 0-.255-.059-.484-.178-.686a1.227 1.227 0 00-.49-.48 1.327 1.327 0 00-.686-.179c-.225 0-.433.038-.623.116a1.265 1.265 0 00-.48.33v1.807c.13.137.29.244.48.321.196.077.404.116.623.116zm-6.434 1.069c-.463 0-.894-.081-1.292-.241a3.382 3.382 0 01-1.05-.686 3.394 3.394 0 01-.704-1.024 3.214 3.214 0 01-.25-1.265c0-.451.084-.87.25-1.256.172-.391.407-.733.703-1.024a3.193 3.193 0 011.051-.686c.398-.166.829-.25 1.292-.25.463 0 .893.084 1.291.25.404.16.754.39 1.052.686a3.142 3.142 0 01.953 2.28c0 .451-.084.873-.25 1.265a3.202 3.202 0 01-1.755 1.71c-.398.16-.828.24-1.291.24zm0-1.185c.285 0 .546-.05.784-.152.237-.107.445-.25.623-.427a2.05 2.05 0 00.57-1.452c0-.29-.05-.558-.15-.802a1.906 1.906 0 00-.42-.64 1.88 1.88 0 00-.623-.428 1.892 1.892 0 00-.784-.16c-.28 0-.538.053-.775.16a1.893 1.893 0 00-.624.427 2.048 2.048 0 00-.57 1.434c0 .291.05.561.152.81.1.25.24.467.418.651a2.1 2.1 0 00.624.427c.237.101.496.151.775.151zm-10.207 1.086v-4.64h1.22v.383c.35-.315.784-.472 1.3-.472.363 0 .68.08.954.24.28.155.496.372.65.65.154.274.231.595.231.963v2.876h-1.22v-2.698c0-.303-.085-.54-.258-.713-.172-.178-.407-.267-.704-.267-.207 0-.392.042-.552.125a1.05 1.05 0 00-.4.338v3.215h-1.221zm-3.226.089c-.463 0-.882-.106-1.256-.32a2.434 2.434 0 01-.89-.864 2.304 2.304 0 01-.33-1.22 2.359 2.359 0 011.211-2.093c.38-.214.802-.32 1.265-.32.463 0 .882.106 1.256.32.38.213.677.504.89.872.22.363.33.77.33 1.22 0 .452-.11.859-.33 1.22a2.36 2.36 0 01-.881.865 2.5 2.5 0 01-1.265.32zm0-1.06c.244 0 .46-.059.65-.177a1.358 1.358 0 00.64-1.167 1.304 1.304 0 00-.176-.686 1.294 1.294 0 00-.463-.48 1.16 1.16 0 00-.65-.188c-.238 0-.455.062-.651.187a1.29 1.29 0 00-.463.48c-.113.203-.17.431-.17.687 0 .25.057.478.17.686a1.278 1.278 0 001.113.659zm-4.436.971v-4.64h1.22v4.64h-1.22zm.605-5.192a.67.67 0 01-.49-.205.67.67 0 01-.204-.49.65.65 0 01.204-.49.667.667 0 01.49-.204c.196 0 .36.068.49.205a.65.65 0 01.205.49.67.67 0 01-.205.49.65.65 0 01-.49.204zm-2.181 5.264c-.516 0-.908-.116-1.175-.348-.261-.237-.392-.582-.392-1.033v-2.316h-.953v-1.015h.953v-1.184l1.22-.277v1.461h1.327v1.015h-1.327v2.066c0 .214.047.369.143.464.095.089.26.133.498.133.12 0 .226-.005.321-.018.1-.017.21-.047.33-.088v1.006a2.52 2.52 0 01-.472.098 3.789 3.789 0 01-.473.035zm-5.68.017a1.94 1.94 0 01-.953-.231c-.273-.16-.49-.38-.65-.66a1.956 1.956 0 01-.232-.961v-2.877h1.22v2.699c0 .296.087.534.259.712.178.178.415.267.712.267.202 0 .383-.038.544-.115a1.11 1.11 0 00.41-.348v-3.215h1.22v4.64h-1.22v-.374c-.357.309-.794.463-1.31.463zm-7.418-.089v-6.234l1.22-.205v2.173a2.04 2.04 0 011.3-.436c.44 0 .838.107 1.194.32.357.214.639.502.847.865.213.355.32.757.32 1.202a2.34 2.34 0 01-1.184 2.066 2.39 2.39 0 01-1.212.312c-.232 0-.457-.033-.677-.098a2.16 2.16 0 01-.605-.285v.32h-1.203zm2.325-.97c.255 0 .484-.06.686-.178a1.31 1.31 0 00.668-1.167c0-.256-.06-.484-.179-.686a1.23 1.23 0 00-.49-.48 1.326 1.326 0 00-.685-.179 1.63 1.63 0 00-.624.116c-.184.07-.344.18-.48.33v1.807c.13.137.29.244.48.321.197.077.404.116.624.116zm-4.499.97v-4.64h1.22v4.64h-1.22zm.605-5.192a.67.67 0 01-.49-.205.67.67 0 01-.204-.49.65.65 0 01.204-.49.668.668 0 01.49-.204.65.65 0 01.49.205.65.65 0 01.205.49.67.67 0 01-.205.49.651.651 0 01-.49.204zm-4.241 5.192v-4.64h1.22v.517a1.53 1.53 0 01.535-.464c.207-.106.442-.16.703-.16.226.006.395.042.508.107v1.069a1.15 1.15 0 00-.294-.09 1.514 1.514 0 00-.33-.035 1.23 1.23 0 00-.65.178 1.302 1.302 0 00-.472.508v3.01h-1.22zm-1.575.072c-.517 0-.908-.116-1.176-.348-.261-.237-.391-.582-.391-1.033v-2.316h-.953v-1.015h.953v-1.184l1.22-.277v1.461h1.327v1.015H44.38v2.066c0 .214.047.369.142.464.095.089.262.133.5.133.117 0 .225-.005.32-.018.1-.017.21-.047.33-.088v1.006a2.524 2.524 0 01-.473.098 3.78 3.78 0 01-.472.035zm-4.751.018a4.17 4.17 0 01-1.185-.161 2.95 2.95 0 01-.944-.48l.606-.811c.267.178.522.311.766.4.25.09.496.134.74.134.272 0 .489-.044.65-.134.166-.095.249-.216.249-.365a.338.338 0 00-.143-.285c-.089-.071-.234-.121-.436-.151l-.89-.134c-.464-.07-.814-.22-1.052-.445-.238-.232-.356-.535-.356-.909 0-.302.077-.56.231-.774.16-.22.383-.39.668-.508.291-.125.636-.187 1.034-.187.338 0 .668.047.988.142a3.2 3.2 0 01.918.437l-.588.792a3.122 3.122 0 00-.73-.347 2.387 2.387 0 00-.704-.107c-.22 0-.398.042-.535.125-.13.083-.195.193-.195.33 0 .124.047.222.142.293.095.072.258.122.49.152l.882.133c.463.066.816.214 1.06.446.243.225.365.52.365.882 0 .296-.09.56-.268.792a1.875 1.875 0 01-.721.543c-.303.131-.65.197-1.042.197zm-3.911-.09v-4.64h1.22v4.64h-1.22zm.605-5.192a.669.669 0 01-.49-.205.668.668 0 01-.204-.49c0-.196.068-.36.205-.49a.667.667 0 01.49-.204c.195 0 .358.068.49.205a.65.65 0 01.204.49.67.67 0 01-.205.49.65.65 0 01-.49.204zm-5.81 4.044h1.087a1.929 1.929 0 001.407-.561c.185-.179.324-.387.42-.624.1-.238.15-.496.15-.775 0-.28-.05-.537-.15-.775a1.928 1.928 0 00-.42-.632 1.929 1.929 0 00-.632-.42 1.965 1.965 0 00-.775-.15H30.86v3.937zm-1.29 1.148v-6.234h2.395c.47 0 .903.08 1.3.24a3.076 3.076 0 011.737 1.657c.172.38.259.79.259 1.229 0 .445-.084.855-.25 1.23-.166.373-.4.702-.704.988a3.311 3.311 0 01-1.042.659 3.56 3.56 0 01-1.3.231h-2.396zm-4.82.09c-.463 0-.885-.107-1.265-.321a2.438 2.438 0 01-.89-.864c-.22-.362-.33-.77-.33-1.22 0-.452.104-.859.311-1.22a2.41 2.41 0 01.864-.864 2.34 2.34 0 011.212-.321c.445 0 .84.11 1.184.33a2.3 2.3 0 01.811.89c.202.374.303.799.303 1.274v.32h-3.438c.053.184.14.35.258.499.125.148.276.264.454.347.184.084.38.125.588.125a1.6 1.6 0 00.57-.098c.178-.065.33-.157.454-.276l.802.73a2.962 2.962 0 01-.882.508 2.95 2.95 0 01-1.006.16zm-1.256-2.868h2.253a1.14 1.14 0 00-.231-.482 1.1 1.1 0 00-.392-.329 1.003 1.003 0 00-.499-.125 1.102 1.102 0 00-.909.445c-.1.137-.175.3-.222.49zm-6.295 2.778v-4.64h1.22v.383c.35-.315.784-.472 1.3-.472.363 0 .68.08.954.24.279.155.496.372.65.65.154.274.231.595.231.963v2.876h-1.22v-2.698c0-.303-.086-.54-.258-.713-.173-.178-.407-.267-.704-.267-.208 0-.392.042-.552.125-.16.077-.294.19-.4.338v3.215h-1.221zm-2.175 0v-4.64h1.22v4.64h-1.22zm.606-5.192a.67.67 0 01-.49-.205.67.67 0 01-.205-.49.65.65 0 01.205-.49.667.667 0 01.49-.204c.196 0 .36.068.49.205a.65.65 0 01.205.49.67.67 0 01-.205.49.65.65 0 01-.49.204zm-2.78 5.192v-6.234l1.22-.205v6.44h-1.22zm-3.635 0v-4.64h1.22v.517a1.53 1.53 0 01.534-.464 1.53 1.53 0 01.704-.16c.225.006.395.042.507.107v1.069a1.155 1.155 0 00-.294-.09 1.513 1.513 0 00-.329-.035 1.23 1.23 0 00-.65.178 1.302 1.302 0 00-.473.508v3.01h-1.22zm-2.175 0v-4.64h1.22v4.64H7.04zm.606-5.192a.669.669 0 01-.49-.205.668.668 0 01-.205-.49c0-.196.068-.36.205-.49a.667.667 0 01.49-.204.65.65 0 01.49.205.65.65 0 01.204.49.67.67 0 01-.204.49.65.65 0 01-.49.204zM0 47.856l2.565-6.234h1.487l2.539 6.234H5.193l-.633-1.638H1.986l-.64 1.638H0zm2.387-2.672h1.781l-.89-2.297-.89 2.297z" fill="#133769"/>
  <defs>
    <linearGradient id="WfKmCAM33yxha" x1="-17.813" y1="18.803" x2="156.855" y2="18.803" gradientUnits="userSpaceOnUse">
      <stop stop-color="#F8B133"/>
      <stop offset="1" stop-color="#D22635"/>
    </linearGradient>
  </defs>
</svg>
