<svg fill="none" xmlns="http://www.w3.org/2000/svg" viewBox="0 0 18 19">
  <path d="M7.278 18.976a2.526 2.526 0 01-2.524-2.526.505.505 0 111.01 0 1.516 1.516 0 002.57 1.047c.284-.276.448-.651.458-1.047a.505.505 0 111.01 0 2.53 2.53 0 01-2.524 2.526z" fill="#000"/>
  <path d="M13.435 16.955H1.291a1.307 1.307 0 01-1.249-1.639 1.309 1.309 0 01.47-.706 5.04 5.04 0 001.7-3.78V8.75a5.202 5.202 0 015.15-5.22c.122-.003.243.004.363.022a.559.559 0 01-.18 1.1 1.143 1.143 0 00-.182-.007 4.078 4.078 0 00-4.049 4.1v2.085a6.17 6.17 0 01-2.136 4.677.409.409 0 01-.033.025.188.188 0 00.145.3h12.145a.187.187 0 00.144-.302l-.032-.025a6.165 6.165 0 01-2.136-4.675v-.813a.552.552 0 111.099 0v.813a5.045 5.045 0 001.699 3.784 1.308 1.308 0 01-.78 2.343l.006-.002z" fill="#133769"/>
  <path d="M12.703 9.756a4.872 4.872 0 01-4.504-3.011A4.881 4.881 0 0111.752.094a4.871 4.871 0 015.004 2.074 4.88 4.88 0 01-.608 6.158 4.879 4.879 0 01-3.445 1.43zm0-8.293A3.41 3.41 0 009.55 3.571a3.417 3.417 0 002.487 4.656 3.41 3.41 0 004.078-3.349 3.42 3.42 0 00-3.412-3.415z" fill="#000"/>
</svg>
